HIERARCHY
ROOT Hips
{
	OFFSET 0.00000 0.00000 0.00000
	CHANNELS 6 Xposition Yposition Zposition Yrotation Zrotation Xrotation 
	JOINT Lumbar
	{
		OFFSET 0 0 0
		CHANNELS 3 Zrotation Xrotation Yrotation
		JOINT Neck
		{
			OFFSET 0.00 0.2701 0.00
			CHANNELS 3 Zrotation Xrotation Yrotation
			End Site
			{
				OFFSET 0.00 0.1379 0.00
			}
		}
		JOINT RightShoulder
		{
			OFFSET 0.0119 0.2289 0.1181
			CHANNELS 3 Zrotation Xrotation Yrotation
			JOINT RightElbow
			{
				OFFSET 0.00 -0.1475 0.00
				CHANNELS 2 Zrotation Yrotation
				JOINT RightWrist
				{
					OFFSET 0.00 -0.1605 0.00
					CHANNELS 2 Zrotation Xrotation
					End Site
					{
						OFFSET 0.0040 -0.1068 0.0006
					}
				}
			}
		}
		JOINT LeftShoulder
		{
			OFFSET 0.0119 0.2289 -0.1181
			CHANNELS 3 Zrotation Xrotation Yrotation
			JOINT LeftElbow
			{
				OFFSET 0.00 -0.1475 0.00
				CHANNELS 2 Zrotation Yrotation
				JOINT LeftWrist
				{
					OFFSET 0.00 -0.1605 0.00
					CHANNELS 2 Zrotation Xrotation
					End Site
					{
						OFFSET 0.0040 -0.1068 -0.0006
					}
				}
			}
		}
	}
	JOINT RightHip
	{
		OFFSET 0.0316 -0.0424 0.0458
		CHANNELS 3 Zrotation Xrotation Yrotation
		JOINT RightKnee
		{
			OFFSET 0.00 -0.2438 0.00
			CHANNELS 1 Zrotation
			JOINT RightAnkle
			{
				OFFSET 0.00 -0.2449 0.00
				CHANNELS 3 Zrotation Xrotation Yrotation
				End Site
				{
					OFFSET 0.1237 -0.0542 0.0051
				}
			}
		}
	}
	JOINT LeftHip
	{
		OFFSET 0.0316 -0.0424 -0.0458
		CHANNELS 3 Zrotation Xrotation Yrotation
		JOINT LeftKnee
		{
			OFFSET 0.00 -0.2438 0.00
			CHANNELS 1 Zrotation
			JOINT LeftAnkle
			{
				OFFSET 0.00 -0.2449 0.00
				CHANNELS 3 Zrotation Xrotation Yrotation
				End Site
				{
					OFFSET 0.1237 -0.0542 -0.0051
				}
			}
		}
	}
}
MOTION
Frames: 14
Frame Time: 0.02
-0.16392 0.00262 0.04346 -155.27761 -38.82122 -0.4639 48.2298 1.18629 -8.32632 7.71299 -1.42726 -2.11994 31.00187 -14.79665 23.86201 92.2312 93.8536 17.42344 -0.59576 42.82895 23.01286 -16.08316 77.69129 -92.43993 10.92699 -0.13746 36.85044 -0.24771 -9.39601 -15.92754 -6.67882 -0.92326 -2.69621 43.21268 2.8218 9.09507 -23.2648 -6.71082 1.2678 2.86506
-0.16374 0.00258 0.04354 -155.27112 -39.13065 -0.52428 48.33119 1.14431 -7.91723 7.52385 -0.66327 -2.11994 31.32173 -14.71275 20.49931 93.58118 92.97372 15.70752 -0.48712 38.77782 21.80238 -12.75574 82.54549 -91.83894 9.93511 -0.18672 37.20691 -0.24251 -9.5162 -15.94919 -6.70238 -0.88416 -2.67999 43.55943 2.9418 9.53663 -23.28078 -6.73546 1.21455 2.84153
-0.16355 0.00254 0.04365 -155.15702 -39.42917 -0.559 48.39691 1.12237 -7.53209 7.32263 -0.05562 -2.11994 31.11598 -14.81405 16.88856 95.67826 91.20712 12.46321 -0.34838 34.91365 20.42082 -9.79263 86.86239 -90.60107 7.9642 -0.42418 37.5358 -0.24907 -9.60913 -15.95297 -6.72632 -0.85234 -2.66815 43.88865 3.04799 9.98635 -23.28919 -6.76589 1.1547 2.81528
-0.16337 0.00251 0.04375 -155.08524 -39.72829 -0.60479 48.47438 1.09092 -7.14309 7.12759 0.61237 -2.11994 31.1312 -14.84552 13.40405 97.40627 89.84145 9.93824 -0.22967 30.99582 19.13902 -6.69295 91.36575 -89.59551 6.41722 -0.56542 37.87158 -0.24848 -9.71114 -15.9643 -6.74906 -0.81868 -2.6549 44.22205 3.15888 10.42016 -23.30102 -6.79308 1.09886 2.79068
-0.16318 0.00247 0.04386 -155.04121 -40.0477 -0.65319 48.57084 1.06199 -6.72565 6.93174 1.32592 -2.11994 31.22032 -14.81251 9.8473 99.27743 88.48532 7.30568 -0.0861 26.92263 17.75227 -3.45709 96.13462 -88.77178 4.93655 -0.74849 38.23298 -0.25585 -9.83012 -15.97789 -6.77623 -0.77841 -2.639 44.57338 3.27787 10.91181 -23.31303 -6.82304 1.03801 2.76398
-0.163 0.00243 0.04395 -154.91383 -40.32141 -0.68995 48.61934 1.03236 -6.3729 6.73435 1.90646 -2.11994 31.03214 -14.96025 6.39318 101.01423 86.90304 4.54193 0.01421 23.23261 16.55127 -0.59967 100.20817 -87.44703 3.10039 -0.89105 38.5337 -0.24945 -9.90693 -15.98264 -6.79426 -0.75372 -2.6297 44.88238 3.37596 11.28174 -23.32282 -6.84852 0.98633 2.74116
-0.1628 0.00239 0.04404 -154.58264 -40.47318 -0.7016 48.54259 0.99483 -6.19002 6.53017 2.16839 -2.11994 30.19598 -15.54958 3.21959 102.28223 84.85053 1.70888 -0.01859 20.47875 15.86506 1.33782 102.57154 -84.81122 0.43979 -0.86915 38.67467 -0.20031 -9.86371 -15.96677 -6.78629 -0.77103 -2.63786 45.07977 3.42209 11.3229 -23.32852 -6.86017 0.96138 2.72949
-0.16259 0.00235 0.04411 -154.17131 -40.57892 -0.70223 48.41914 0.95604 -6.07161 6.32561 2.29995 -2.11994 29.10083 -16.31653 0.17163 103.37478 82.60841 -1.18919 -0.09371 18.12093 15.37961 2.89859 104.23808 -81.71137 -2.52799 -0.80256 38.75523 -0.1372 -9.78014 -15.94275 -6.76919 -0.8037 -2.65248 45.2348 3.44704 11.23888 -23.33219 -6.86708 0.94604 2.72189
-0.16239 0.00231 0.04419 -153.79667 -40.70426 -0.70747 48.31796 0.91835 -5.92554 6.12437 2.48457 -2.11994 28.13166 -17.01131 -2.89161 104.4866 80.49769 -4.00466 -0.14625 15.63349 14.83063 4.60714 106.1687 -78.8923 -5.29817 -0.75979 38.86238 -0.0816 -9.72146 -15.92285 -6.75668 -0.82891 -2.66395 45.40818 3.47998 11.20513 -23.33664 -6.87615 0.92652 2.71261
-0.16219 0.00227 0.04428 -153.41712 -40.83425 -0.71372 48.21079 0.87893 -5.77394 5.90909 2.69013 -2.11994 27.10986 -17.67877 -6.14268 105.8678 78.17931 -7.09634 -0.21551 12.93804 14.16161 6.40315 108.29828 -75.77484 -8.34485 -0.7046 38.97175 -0.02144 -9.63509 -15.90055 -6.74233 -0.85636 -2.67647 45.58438 3.51941 11.19921 -23.3414 -6.88538 0.90595 2.70254
-0.162 0.00224 0.04433 -153.0302 -40.94444 -0.71531 48.10588 0.84283 -5.6482 5.72357 2.82278 -2.11994 26.14221 -18.43992 -8.96634 106.65174 76.24228 -9.60952 -0.25586 10.76955 13.78869 7.93085 109.86075 -73.15227 -10.87924 -0.66742 39.06311 0.03263 -9.59607 -15.88157 -6.72961 -0.88274 -2.68831 45.74539 3.54043 11.10609 -23.34517 -6.89309 0.88998 2.69511
-0.16185 0.00225 0.04427 -152.6426 -41.00504 -0.70935 48.01515 0.81363 -5.58397 5.61621 2.79007 -2.11994 25.39765 -19.43976 -10.66486 105.69288 75.56685 -10.48933 -0.24707 9.94206 14.21848 8.82237 109.97794 -72.2377 -11.88494 -0.6444 39.11401 0.06708 -9.70739 -15.87344 -6.72381 -0.90199 -2.69649 45.86998 3.51618 10.79685 -23.34642 -6.89761 0.8841 2.69399
-0.16172 0.00227 0.04417 -152.25086 -41.04835 -0.6988 47.92912 0.78817 -5.54251 5.53948 2.68864 -2.11994 24.71781 -20.52139 -11.9318 104.15986 75.26063 -10.77975 -0.20173 9.63324 14.93354 9.45632 109.5597 -71.80442 -12.36447 -0.64791 39.14983 0.0949 -9.86623 -15.86904 -6.71993 -0.91966 -2.70379 45.98154 3.47417 10.40508 -23.34681 -6.90074 0.88262 2.69541
-0.16158 0.00229 0.04409 -151.86154 -41.10384 -0.6887 47.84341 0.76259 -5.48644 5.45161 2.61662 -2.11994 24.00363 -21.55061 -13.37899 102.97646 74.67752 -11.34674 -0.14439 9.09775 15.49683 10.20175 109.42281 -70.99658 -13.10832 -0.66998 39.19652 0.12534 -9.99691 -15.86323 -6.71506 -0.93829 -2.71164 46.10252 3.44011 10.05511 -23.34784 -6.90457 0.87929 2.69565
